<svg id="Capa_1" data-name="Capa 1" xmlns="http://www.w3.org/2000/svg" viewBox="0 0 549.04 45.4"><defs><style>.cls-1{fill:#f06000;}.cls-2{fill:#c8c8c8;}</style></defs><title>email</title><path class="cls-1" d="M49.78,77.37c0,9-6.2,12.85-12.05,12.85-6.55,0-11.6-4.8-11.6-12.45,0-8.1,5.3-12.85,12-12.85C45.08,64.92,49.78,70,49.78,77.37Zm-19.2.25c0,5.3,3.05,9.3,7.35,9.3s7.35-4,7.35-9.4c0-4.1-2.05-9.3-7.25-9.3S30.58,73,30.58,77.62Z" transform="translate(-26.13 -54.17)"/><path class="cls-1" d="M55.33,72c0-2.5,0-4.55-.2-6.55H59l.2,3.9h.15a8.34,8.34,0,0,1,7.6-4.45,7.15,7.15,0,0,1,6.85,4.85h.1a10,10,0,0,1,2.7-3.15,8.26,8.26,0,0,1,5.35-1.7c3.2,0,7.95,2.1,7.95,10.5V89.67h-4.3V76c0-4.65-1.7-7.45-5.25-7.45a5.7,5.7,0,0,0-5.2,4,7.25,7.25,0,0,0-.35,2.2v15h-4.3V75.17c0-3.85-1.7-6.65-5-6.65a6.56,6.56,0,0,0-5.8,6.55v14.6h-4.3Z" transform="translate(-26.13 -54.17)"/><path class="cls-1" d="M110.43,89.67l-.35-3h-.15a9,9,0,0,1-7.4,3.59c-4.9,0-7.4-3.45-7.4-7,0-5.85,5.2-9,14.55-9v-.5c0-2-.55-5.6-5.5-5.6a12.06,12.06,0,0,0-6.3,1.8l-1-2.9a15,15,0,0,1,8-2.15c7.4,0,9.2,5,9.2,9.9v9.06a34,34,0,0,0,.4,5.79Zm-.65-12.35c-4.8-.1-10.25.75-10.25,5.45a3.89,3.89,0,0,0,4.15,4.2,6,6,0,0,0,5.85-4,4.59,4.59,0,0,0,.25-1.4Z" transform="translate(-26.13 -54.17)"/><path class="cls-1" d="M121.13,73c0-2.85,0-5.3-.2-7.55h3.85l.15,4.75h.2a7.26,7.26,0,0,1,6.7-5.3,4.76,4.76,0,0,1,1.25.15v4.15a6.61,6.61,0,0,0-1.5-.15c-3.1,0-5.3,2.35-5.9,5.65a12.38,12.38,0,0,0-.2,2v12.9h-4.35Z" transform="translate(-26.13 -54.17)"/><path class="cls-2" d="M160,92.88a18.22,18.22,0,0,1-8.9,2c-8.2,0-15.15-6-15.15-15.61,0-10.3,7.15-19.2,18.25-19.2,8.7,0,14.55,6.1,14.55,14.45,0,7.5-4.2,11.9-8.9,11.9-2,0-3.85-1.34-3.7-4.4H156c-1.75,3-4,4.4-7,4.4s-5.4-2.35-5.4-6.3a11.81,11.81,0,0,1,11.85-11.85,13.18,13.18,0,0,1,5.35,1L159,78.37c-.75,3.8-.15,5.55,1.5,5.6,2.55,0,5.4-3.35,5.4-9.15,0-7.25-4.35-12.45-12.1-12.45-8.15,0-15,6.45-15,16.6,0,8.36,5.45,13.51,12.85,13.51a15.6,15.6,0,0,0,7.55-1.75Zm-2.75-21.61a8.64,8.64,0,0,0-2.5-.35c-4.4,0-7.95,4.15-7.95,9,0,2.21,1.1,3.8,3.3,3.8,2.9,0,5.55-3.7,6.1-6.8Z" transform="translate(-26.13 -54.17)"/><path class="cls-2" d="M174.33,54.17h4.4v35.5h-4.4Z" transform="translate(-26.13 -54.17)"/><path class="cls-2" d="M208,77.37c0,9-6.2,12.85-12.05,12.85-6.55,0-11.6-4.8-11.6-12.45,0-8.1,5.3-12.85,12-12.85C203.33,64.92,208,70,208,77.37Zm-19.2.25c0,5.3,3,9.3,7.35,9.3s7.35-4,7.35-9.4c0-4.1-2.05-9.3-7.25-9.3S188.83,73,188.83,77.62Z" transform="translate(-26.13 -54.17)"/><path class="cls-2" d="M213.58,73.37c0-3.1-.1-5.6-.2-7.9h4l.2,4.15h.1a9.51,9.51,0,0,1,8.6-4.7c5.85,0,10.25,5,10.25,12.3,0,8.7-5.3,13-11,13a8.46,8.46,0,0,1-7.45-3.8h-.1V99.58h-4.35Zm4.35,6.45a10.12,10.12,0,0,0,.2,1.81,6.79,6.79,0,0,0,6.6,5.14c4.65,0,7.35-3.8,7.35-9.35,0-4.85-2.55-9-7.2-9a7,7,0,0,0-6.65,5.45,7.14,7.14,0,0,0-.3,1.8Z" transform="translate(-26.13 -54.17)"/><path class="cls-2" d="M244.48,78.37c.1,6,3.9,8.4,8.3,8.4a15.91,15.91,0,0,0,6.7-1.25l.75,3.15a19.43,19.43,0,0,1-8.05,1.5c-7.45,0-11.9-4.9-11.9-12.2s4.3-13,11.35-13c7.9,0,10,7,10,11.4a16.6,16.6,0,0,1-.15,2.05Zm12.9-3.15c.05-2.8-1.15-7.15-6.1-7.15-4.45,0-6.4,4.1-6.75,7.15Z" transform="translate(-26.13 -54.17)"/><path class="cls-2" d="M264.33,87.13l10.95-14.26c1.05-1.3,2.05-2.45,3.15-3.75V69h-13.1V65.47h18.45l0,2.75-10.8,14c-1,1.36-2,2.56-3.1,3.81v.09H284v3.5H264.33Z" transform="translate(-26.13 -54.17)"/><path class="cls-2" d="M288.48,54.17h4.4v35.5h-4.4Z" transform="translate(-26.13 -54.17)"/><path class="cls-2" d="M322.18,77.37c0,9-6.2,12.85-12.05,12.85-6.55,0-11.6-4.8-11.6-12.45,0-8.1,5.3-12.85,12-12.85C317.48,64.92,322.18,70,322.18,77.37Zm-19.2.25c0,5.3,3,9.3,7.35,9.3s7.35-4,7.35-9.4c0-4.1-2.05-9.3-7.25-9.3S303,73,303,77.62Z" transform="translate(-26.13 -54.17)"/><path class="cls-2" d="M327.72,73.37c0-3.1-.1-5.6-.2-7.9h4l.2,4.15h.1a9.53,9.53,0,0,1,8.61-4.7c5.85,0,10.25,5,10.25,12.3,0,8.7-5.3,13-11,13a8.48,8.48,0,0,1-7.46-3.8h-.1V99.58h-4.35Zm4.35,6.45a10.12,10.12,0,0,0,.2,1.81,6.8,6.8,0,0,0,6.61,5.14c4.65,0,7.35-3.8,7.35-9.35,0-4.85-2.55-9-7.2-9a7,7,0,0,0-6.65,5.45,6.72,6.72,0,0,0-.31,1.8Z" transform="translate(-26.13 -54.17)"/><path class="cls-2" d="M358.62,78.37c.1,6,3.9,8.4,8.3,8.4a16,16,0,0,0,6.71-1.25l.75,3.15a19.53,19.53,0,0,1-8.06,1.5c-7.45,0-11.9-4.9-11.9-12.2s4.3-13,11.35-13c7.9,0,10,7,10,11.4a19.43,19.43,0,0,1-.14,2.05Zm12.9-3.15c.05-2.8-1.14-7.15-6.1-7.15-4.45,0-6.4,4.1-6.75,7.15Z" transform="translate(-26.13 -54.17)"/><path class="cls-2" d="M378.47,87.13l10.95-14.26c1.05-1.3,2.05-2.45,3.15-3.75V69h-13.1V65.47h18.45l-.05,2.75-10.8,14c-1,1.36-2,2.56-3.1,3.81v.09h14.15v3.5H378.47Z" transform="translate(-26.13 -54.17)"/><path class="cls-2" d="M401.57,87.08a3,3,0,0,1,3-3.16,3.16,3.16,0,1,1-3,3.16Z" transform="translate(-26.13 -54.17)"/><path class="cls-2" d="M430.22,88.78a16.24,16.24,0,0,1-7,1.39c-7.3,0-12-5-12-12.35s5.1-12.85,13-12.85a14.71,14.71,0,0,1,6.1,1.25l-1,3.4a10.2,10.2,0,0,0-5.1-1.15c-5.55,0-8.55,4.1-8.55,9.15,0,5.6,3.6,9,8.4,9a12.5,12.5,0,0,0,5.4-1.2Z" transform="translate(-26.13 -54.17)"/><path class="cls-2" d="M457,77.37c0,9-6.2,12.85-12.05,12.85-6.55,0-11.6-4.8-11.6-12.45,0-8.1,5.3-12.85,12-12.85C452.27,64.92,457,70,457,77.37Zm-19.2.25c0,5.3,3.05,9.3,7.35,9.3s7.35-4,7.35-9.4c0-4.1-2.05-9.3-7.25-9.3S437.77,73,437.77,77.62Z" transform="translate(-26.13 -54.17)"/><path class="cls-2" d="M462.52,72c0-2.5,0-4.55-.2-6.55h3.85l.2,3.9h.15a8.34,8.34,0,0,1,7.6-4.45A7.15,7.15,0,0,1,481,69.77h.1a10,10,0,0,1,2.7-3.15,8.26,8.26,0,0,1,5.35-1.7c3.2,0,7.95,2.1,7.95,10.5V89.67h-4.3V76c0-4.65-1.7-7.45-5.25-7.45a5.7,5.7,0,0,0-5.2,4,7.25,7.25,0,0,0-.35,2.2v15h-4.3V75.17c0-3.85-1.7-6.65-5.05-6.65a6.56,6.56,0,0,0-5.8,6.55v14.6h-4.3Z" transform="translate(-26.13 -54.17)"/><path class="cls-2" d="M503.17,87.08a3,3,0,0,1,3-3.16,3.16,3.16,0,1,1-3,3.16Z" transform="translate(-26.13 -54.17)"/><path class="cls-2" d="M514.57,72c0-2.5-.05-4.55-.2-6.55h3.85l.2,3.9h.15a8.34,8.34,0,0,1,7.6-4.45A7.15,7.15,0,0,1,533,69.77h.1a10,10,0,0,1,2.7-3.15,8.26,8.26,0,0,1,5.35-1.7c3.2,0,8,2.1,8,10.5V89.67h-4.3V76c0-4.65-1.7-7.45-5.25-7.45a5.7,5.7,0,0,0-5.2,4,7.25,7.25,0,0,0-.35,2.2v15h-4.3V75.17c0-3.85-1.7-6.65-5.05-6.65a6.56,6.56,0,0,0-5.8,6.55v14.6h-4.3Z" transform="translate(-26.13 -54.17)"/><path class="cls-2" d="M558.32,65.47l3.45,5.2c.9,1.35,1.65,2.6,2.45,4h.15c.8-1.45,1.6-2.7,2.4-4l3.4-5.15h4.75l-8.25,11.7,8.5,12.5h-5l-3.55-5.45c-1-1.4-1.75-2.75-2.6-4.2h-.1c-.8,1.45-1.65,2.75-2.55,4.2l-3.5,5.45H553l8.6-12.35-8.2-11.85Z" transform="translate(-26.13 -54.17)"/></svg>